<svg width="513" height="478" viewBox="0 0 513 478" fill="none" xmlns="http://www.w3.org/2000/svg">
<path d="M373.437 0C349.414 0.373652 325.916 7.07954 305.314 19.4405C284.713 31.8014 267.738 49.3796 256.103 70.4C244.469 49.3796 227.494 31.8014 206.892 19.4405C186.291 7.07954 162.792 0.373652 138.77 0C100.475 1.6638 64.3957 18.4161 38.4133 46.597C12.4309 74.7778 -1.34207 112.097 0.103277 150.4C0.103277 294.933 233.831 461.867 243.773 468.949L256.103 477.675L268.434 468.949C278.375 461.909 512.103 294.933 512.103 150.4C513.549 112.097 499.776 74.7778 473.793 46.597C447.811 18.4161 411.731 1.6638 373.437 0Z" fill="#ffffff"/>
</svg>
