<svg width="33" height="32" viewBox="0 0 33 32" fill="none" xmlns="http://www.w3.org/2000/svg">
<path fill-rule="evenodd" clip-rule="evenodd" d="M16.036 0C22.0309 0 25.0286 -0.000163937 27.2613 1.28594C28.7239 2.12851 29.9388 3.34062 30.7833 4.8C32.0722 7.02768 32.0721 10.0186 32.0721 16C32.0721 21.9814 32.0722 24.9723 30.7833 27.2C29.9388 28.6594 28.7239 29.8715 27.2613 30.7141C25.0286 32.0002 22.0309 32 16.036 32C10.0411 32 7.04351 32.0002 4.81081 30.7141C3.34814 29.8715 2.13331 28.6594 1.28883 27.2C-0.000164306 24.9723 0 21.9814 0 16C0 10.0186 -0.000164306 7.02768 1.28883 4.8C2.13331 3.34062 3.34814 2.12851 4.81081 1.28594C7.04351 -0.000163937 10.0411 0 16.036 0ZM17.6396 3.2C10.5544 3.2 4.81081 8.93072 4.81081 16C4.81081 23.0693 10.5544 28.8 17.6396 28.8C24.7248 28.8 30.4685 23.0693 30.4685 16C30.4685 8.93072 24.7248 3.2 17.6396 3.2Z" fill="white"/>
<path d="M28.8642 16C28.8642 20.4182 25.2743 24 20.8461 24C16.418 24 12.8281 20.4182 12.8281 16C12.8281 11.5818 16.418 8 20.8461 8C25.2743 8 28.8642 11.5818 28.8642 16Z" fill="white"/>
</svg>
