<svg width="178" height="32" viewBox="0 0 178 32" fill="none" xmlns="http://www.w3.org/2000/svg">
<g clip-path="url(#clip0_257_123)">
<path fill-rule="evenodd" clip-rule="evenodd" d="M16.036 0C22.0309 0 25.0286 -0.000163937 27.2613 1.28594C28.7239 2.12851 29.9388 3.34062 30.7833 4.8C32.0722 7.02768 32.0721 10.0186 32.0721 16C32.0721 21.9814 32.0722 24.9723 30.7833 27.2C29.9388 28.6594 28.7239 29.8715 27.2613 30.7141C25.0286 32.0002 22.0309 32 16.036 32C10.0411 32 7.04351 32.0002 4.81081 30.7141C3.34814 29.8715 2.13331 28.6594 1.28883 27.2C-0.000164306 24.9723 0 21.9814 0 16C0 10.0186 -0.000164306 7.02768 1.28883 4.8C2.13331 3.34062 3.34814 2.12851 4.81081 1.28594C7.04351 -0.000163937 10.0411 0 16.036 0ZM17.6396 3.2C10.5544 3.2 4.81081 8.93072 4.81081 16C4.81081 23.0693 10.5544 28.8 17.6396 28.8C24.7248 28.8 30.4685 23.0693 30.4685 16C30.4685 8.93072 24.7248 3.2 17.6396 3.2Z" fill="white"/>
<path d="M28.8649 16C28.8649 20.4182 25.275 24 20.8468 24C16.4187 24 12.8288 20.4182 12.8288 16C12.8288 11.5818 16.4187 8 20.8468 8C25.275 8 28.8649 11.5818 28.8649 16Z" fill="white"/>
<path d="M172.015 9.00696C173.807 9.00696 175.249 9.55624 176.339 10.6549C177.446 11.736 178 13.2532 178 15.2062V23.7074H174.308V15.7033C174.308 14.5698 174.018 13.7066 173.439 13.1137C172.858 12.5034 172.067 12.1982 171.065 12.1982C170.063 12.1982 169.263 12.5034 168.665 13.1137C168.085 13.7066 167.795 14.5698 167.795 15.7033V23.7074H164.103V15.7033C164.103 14.5698 163.814 13.7066 163.233 13.1137C162.654 12.5034 161.862 12.1982 160.86 12.1982C159.841 12.1982 159.032 12.5034 158.434 13.1137C157.854 13.7066 157.564 14.5698 157.564 15.7033V23.7074H153.872V9.21624H157.564V10.9687C158.038 10.3584 158.645 9.87888 159.384 9.53008C160.139 9.18136 160.966 9.00696 161.862 9.00696C163.005 9.00696 164.025 9.25112 164.921 9.73936C165.817 10.2102 166.512 10.8902 167.004 11.7796C167.479 10.9426 168.164 10.2712 169.061 9.76552C169.975 9.25976 170.959 9.00696 172.015 9.00696Z" fill="white"/>
<path d="M151.152 9.21616V23.7074H147.435V21.8764C146.96 22.5042 146.336 23.0011 145.562 23.3674C144.807 23.7162 143.98 23.8905 143.084 23.8905C141.941 23.8905 140.93 23.6551 140.052 23.1842C139.173 22.696 138.478 21.9898 137.968 21.0655C137.476 20.1238 137.23 19.0078 137.23 17.7174V9.21616H140.921V17.1942C140.921 18.3451 141.212 19.2345 141.791 19.8622C142.372 20.4726 143.163 20.7778 144.165 20.7778C145.185 20.7778 145.985 20.4726 146.565 19.8622C147.145 19.2345 147.435 18.3451 147.435 17.1942V9.21616H151.152Z" fill="white"/>
<path d="M129.506 23.9428C128.311 23.9428 127.238 23.7336 126.289 23.315C125.339 22.8791 124.584 22.2949 124.021 21.5625C123.476 20.8301 123.178 20.0192 123.125 19.1298H126.843C126.913 19.6879 127.186 20.15 127.66 20.5162C128.152 20.8824 128.759 21.0655 129.48 21.0655C130.183 21.0655 130.727 20.926 131.115 20.647C131.519 20.368 131.721 20.0105 131.721 19.5746C131.721 19.1037 131.475 18.755 130.982 18.5282C130.508 18.2841 129.744 18.0226 128.688 17.7435C127.599 17.4819 126.702 17.2117 125.999 16.9326C125.314 16.6536 124.715 16.2264 124.206 15.651C123.713 15.0754 123.467 14.2994 123.467 13.323C123.467 12.5207 123.696 11.7883 124.153 11.1257C124.627 10.463 125.296 9.93992 126.157 9.55624C127.036 9.17264 128.065 8.9808 129.242 8.9808C130.982 8.9808 132.371 9.41672 133.409 10.2886C134.445 11.1431 135.017 12.3028 135.123 13.7676H131.589C131.536 13.1922 131.29 12.7387 130.851 12.4074C130.429 12.0586 129.857 11.8842 129.137 11.8842C128.469 11.8842 127.95 12.0063 127.581 12.2505C127.229 12.4946 127.054 12.8346 127.054 13.2706C127.054 13.7589 127.3 14.1338 127.792 14.3954C128.284 14.6395 129.049 14.8924 130.086 15.1539C131.141 15.4155 132.011 15.6858 132.697 15.9648C133.382 16.2438 133.971 16.6798 134.463 17.2727C134.973 17.8482 135.237 18.6154 135.254 19.5746C135.254 20.4116 135.017 21.1614 134.542 21.8241C134.085 22.4867 133.417 23.0099 132.539 23.3935C131.677 23.7598 130.666 23.9428 129.506 23.9428Z" fill="white"/>
<path d="M110.659 11.3088C111.134 10.6462 111.784 10.0968 112.611 9.66088C113.454 9.20752 114.412 8.9808 115.484 8.9808C116.733 8.9808 117.858 9.28592 118.86 9.89632C119.879 10.5066 120.679 11.3786 121.26 12.512C121.857 13.6281 122.156 14.9273 122.156 16.4095C122.156 17.8918 121.857 19.2083 121.26 20.3593C120.679 21.4927 119.879 22.3734 118.86 23.0012C117.858 23.629 116.733 23.9428 115.484 23.9428C114.412 23.9428 113.463 23.7249 112.636 23.2889C111.828 22.853 111.169 22.3036 110.659 21.641V30.613H106.968V9.21624H110.659V11.3088ZM118.385 16.4095C118.385 15.5376 118.201 14.7878 117.831 14.1599C117.48 13.5147 117.005 13.0265 116.407 12.6951C115.827 12.3638 115.195 12.1982 114.509 12.1982C113.841 12.1982 113.208 12.3726 112.611 12.7213C112.03 13.0526 111.555 13.5409 111.187 14.1861C110.835 14.8314 110.659 15.5899 110.659 16.4618C110.659 17.3338 110.835 18.0923 111.187 18.7375C111.555 19.3827 112.03 19.8797 112.611 20.2285C113.208 20.5598 113.841 20.7254 114.509 20.7254C115.195 20.7254 115.827 20.5511 116.407 20.2023C117.005 19.8535 117.48 19.3566 117.831 18.7114C118.201 18.0662 118.385 17.2989 118.385 16.4095Z" fill="white"/>
<path d="M102.424 7.48982C101.773 7.48982 101.228 7.28928 100.789 6.8882C100.366 6.46968 100.155 5.95525 100.155 5.34491C100.155 4.73457 100.366 4.22886 100.789 3.82778C101.228 3.40926 101.773 3.2 102.424 3.2C103.074 3.2 103.61 3.40926 104.032 3.82778C104.472 4.22886 104.691 4.73457 104.691 5.34491C104.691 5.95525 104.472 6.46968 104.032 6.8882C103.61 7.28928 103.074 7.48982 102.424 7.48982ZM104.243 9.21624V23.7074H100.552V9.21624H104.243Z" fill="white"/>
<path d="M91.1456 23.9428C89.7393 23.9428 88.4732 23.6377 87.3483 23.0274C86.2234 22.3995 85.3358 21.5189 84.6847 20.3854C84.0521 19.2519 83.7362 17.9441 83.7362 16.4618C83.7362 14.9795 84.0609 13.6717 84.7112 12.5382C85.3799 11.4047 86.2851 10.5328 87.4277 9.92248C88.5702 9.29464 89.8443 8.9808 91.2507 8.9808C92.657 8.9808 93.9319 9.29464 95.0744 9.92248C96.217 10.5328 97.1134 11.4047 97.7645 12.5382C98.4324 13.6717 98.7659 14.9795 98.7659 16.4618C98.7659 17.9441 98.4236 19.2519 97.738 20.3854C97.0701 21.5189 96.1553 22.3995 94.9951 23.0274C93.8525 23.6377 92.5696 23.9428 91.1456 23.9428ZM91.1456 20.7516C91.8135 20.7516 92.4373 20.5947 93.0178 20.2808C93.6152 19.9494 94.0898 19.4612 94.4418 18.816C94.793 18.1708 94.9694 17.3861 94.9694 16.4618C94.9694 15.0842 94.5998 14.0292 93.8613 13.2968C93.1405 12.5469 92.2529 12.172 91.1985 12.172C90.1434 12.172 89.2558 12.5469 88.535 13.2968C87.8318 14.0292 87.4806 15.0842 87.4806 16.4618C87.4806 17.8394 87.823 18.9032 88.5085 19.653C89.2117 20.3854 90.0905 20.7516 91.1456 20.7516Z" fill="white"/>
<path d="M75.253 23.9428C73.8467 23.9428 72.5809 23.6377 71.4559 23.0274C70.3308 22.3995 69.4431 21.5189 68.7926 20.3854C68.1597 19.2519 67.8433 17.9441 67.8433 16.4618C67.8433 14.9795 68.1685 13.6717 68.819 12.5382C69.487 11.4047 70.3923 10.5328 71.535 9.92248C72.6776 9.29464 73.9522 8.9808 75.3585 8.9808C76.7648 8.9808 78.0394 9.29464 79.182 9.92248C80.3245 10.5328 81.2209 11.4047 81.872 12.5382C82.5399 13.6717 82.8734 14.9795 82.8734 16.4618C82.8734 17.9441 82.5311 19.2519 81.8455 20.3854C81.1776 21.5189 80.2628 22.3995 79.1029 23.0274C77.9602 23.6377 76.6769 23.9428 75.253 23.9428ZM75.253 20.7516C75.921 20.7516 76.5451 20.5947 77.1252 20.2808C77.7229 19.9494 78.1976 19.4612 78.5492 18.816C78.9007 18.1708 79.0766 17.3861 79.0766 16.4618C79.0766 15.0842 78.7074 14.0292 77.9691 13.2968C77.2483 12.5469 76.3606 12.172 75.3058 12.172C74.251 12.172 73.3633 12.5469 72.6425 13.2968C71.9393 14.0292 71.5878 15.0842 71.5878 16.4618C71.5878 17.8394 71.9305 18.9032 72.6161 19.653C73.3193 20.3854 74.1983 20.7516 75.253 20.7516Z" fill="white"/>
<path d="M59.3605 23.9428C57.9542 23.9428 56.6885 23.6377 55.5634 23.0274C54.4383 22.3995 53.5506 21.5189 52.9002 20.3854C52.2673 19.2519 51.9508 17.9441 51.9508 16.4618C51.9508 14.9795 52.276 13.6717 52.9265 12.5382C53.5945 11.4047 54.4998 10.5328 55.6425 9.92248C56.7852 9.29464 58.0597 8.9808 59.466 8.9808C60.8724 8.9808 62.1468 9.29464 63.2895 9.92248C64.4322 10.5328 65.3287 11.4047 65.9791 12.5382C66.6472 13.6717 66.9812 14.9795 66.9812 16.4618C66.9812 17.9441 66.6384 19.2519 65.9528 20.3854C65.2848 21.5189 64.3707 22.3995 63.2104 23.0274C62.0678 23.6377 60.7845 23.9428 59.3605 23.9428ZM59.3605 20.7516C60.0286 20.7516 60.6526 20.5947 61.2327 20.2808C61.8305 19.9494 62.3051 19.4612 62.6566 18.816C63.0082 18.1708 63.1841 17.3861 63.1841 16.4618C63.1841 15.0842 62.8149 14.0292 62.0765 13.2968C61.3558 12.5469 60.468 12.172 59.4133 12.172C58.3585 12.172 57.4707 12.5469 56.75 13.2968C56.0468 14.0292 55.6952 15.0842 55.6952 16.4618C55.6952 17.8394 56.0381 18.9032 56.7236 19.653C57.4268 20.3854 58.3058 20.7516 59.3605 20.7516Z" fill="white"/>
<path d="M45.3853 20.8039H51.4503V23.7074H41.6937V5.44952H45.3853V20.8039Z" fill="white"/>
<path d="M78.8366 24.5516C79.1341 24.4326 79.4252 24.2972 79.7097 24.1452L79.7158 24.1419C80.9716 23.4625 81.9898 22.5239 82.7564 21.3404V24.2162C82.6746 28.0871 79.4983 31.2 75.5923 31.2H75.1992C71.2933 31.2 68.1172 28.0871 68.0355 24.2162H71.922C72.0023 25.9498 73.4389 27.3308 75.1992 27.3308H75.5923C77.2375 27.3308 78.5999 26.1246 78.8366 24.5516Z" fill="white"/>
</g>
<defs>
<clipPath id="clip0_257_123">
<rect width="178" height="32" fill="white"/>
</clipPath>
</defs>
</svg>
