<svg width="512" height="510" viewBox="0 0 512 510" fill="none" xmlns="http://www.w3.org/2000/svg">
<path d="M255.951 122.251L64.1432 58.1013L222.053 5.472C243.941 -1.824 267.621 -1.824 289.509 5.472L447.781 58.2293L255.951 122.251ZM188.069 242.208L234.469 164.896L64.9539 108.384C51.7912 103.989 37.3699 109.344 30.2232 121.227L6.18053 161.333C-8.0488 185.056 3.3432 215.84 29.5832 224.587L137.978 260.725C156.943 267.04 177.786 259.339 188.069 242.208ZM63.7805 57.9733V58.208L64.1432 58.1013L63.7805 57.9733ZM234.447 509.963V247.819L224.634 264.16C208.805 290.528 181.029 305.653 151.781 305.653C142.714 305.653 133.519 304.224 124.474 301.195L42.4472 273.867V371.104C42.4472 417.013 71.8232 457.781 115.386 472.288L209.999 503.819C217.978 506.4 226.17 508.512 234.447 509.941V509.963ZM505.807 162.037L481.317 121.227C474.191 109.344 459.749 103.989 446.586 108.384L277.093 164.875L323.493 242.187C333.775 259.339 354.597 267.04 373.562 260.704L482.746 224.309C508.581 215.691 519.802 185.376 505.786 162.016L505.807 162.037ZM359.781 305.675C330.533 305.675 302.757 290.571 286.927 264.181L277.114 247.84V509.856C286.117 508.277 295.034 505.973 303.482 503.157H303.695L396.175 472.309C439.738 457.781 469.114 417.035 469.114 371.125V273.867L387.087 301.216C378.042 304.245 368.847 305.675 359.781 305.675Z" fill="white"/>
</svg>
